<?xml version="1.0" standalone="no"?>
<!DOCTYPE svg PUBLIC "-//W3C//DTD SVG 20010904//EN"
 "http://www.w3.org/TR/2001/REC-SVG-20010904/DTD/svg10.dtd">
<svg version="1.0" xmlns="http://www.w3.org/2000/svg"
 width="260.000000pt" height="280.000000pt" viewBox="0 0 260.000000 280.000000"
 preserveAspectRatio="xMidYMid meet">
<metadata>
Created by potrace 1.16, written by Peter Selinger 2001-2019
</metadata>
<g transform="translate(0.000000,280.000000) scale(0.100000,-0.100000)"
fill="#000000" stroke="none">
<path d="M1094 2666 c-498 -95 -874 -473 -960 -967 -24 -136 -15 -360 19 -490
112 -430 438 -751 874 -862 76 -19 114 -22 278 -21 172 0 199 3 285 26 471
127 812 505 881 978 18 125 7 342 -24 461 -111 428 -439 752 -871 860 -105 27
-376 35 -482 15z m431 -51 c226 -48 401 -142 568 -304 171 -167 281 -370 328
-611 16 -84 16 -316 0 -400 -47 -241 -157 -444 -328 -611 -169 -165 -360 -264
-593 -310 -84 -16 -316 -16 -400 0 -233 46 -424 145 -593 310 -171 167 -281
370 -328 611 -16 84 -16 316 0 400 47 241 157 444 328 611 191 186 409 289
683 323 62 8 263 -4 335 -19z"/>
<path d="M1145 2031 c-180 -84 -179 -339 2 -427 50 -24 145 -24 194 -1 145 71
184 248 80 368 -19 23 -53 50 -75 60 -54 25 -148 24 -201 0z m212 -57 c46 -37
83 -105 83 -154 0 -55 -42 -131 -92 -163 -81 -52 -201 -33 -255 42 -76 103
-44 233 72 296 21 11 48 15 92 13 51 -3 69 -9 100 -34z"/>
<path d="M1110 1512 c-78 -26 -116 -48 -167 -95 -84 -78 -133 -174 -147 -290
-6 -48 -5 -58 9 -63 23 -9 28 -1 37 72 25 214 211 366 429 351 45 -3 96 -13
123 -26 l47 -20 -34 -44 c-140 -184 -8 -447 223 -447 107 1 201 58 253 155 32
60 31 182 -3 248 -27 55 -70 96 -133 129 -55 29 -175 32 -225 5 -32 -18 -34
-18 -100 9 -89 36 -229 43 -312 16z m584 -56 c126 -38 196 -160 166 -287 -16
-67 -94 -151 -155 -168 -96 -26 -182 -4 -248 64 -121 124 -64 338 103 390 58
18 77 18 134 1z"/>
</g>
</svg>
